# xmcd
#
# Track frame offsets:
#	183
#	11255
#	30258
#	42078
#	52673
#	72520
#	83468
#	96435
#	104860
#	123598
#	134685
#	142048
#	155240
#	168550
#	180848
#	192628
#
# Disc length: 2777 seconds
#
# Revision: 7
# Processed by: cddbd v1.5.2PL0 Copyright (c) Steve Scherf et al.
# Submitted via: audiograbber 1.83.01
#
DISCID=dd0ad710
DTITLE=Various Artist - Play Me The Blues... The Legendary Blues Singers [CD 2-10)
DYEAR=1991
DGENRE=Blues
TTITLE0=Eric Clapton - White Snake
TTITLE1=Muddy Waters - I Got My Mojo Working
TTITLE2=Little Walter - My Babe
TTITLE3=Sonny Boy Williamson II. - Fattening Frogs For Snakes
TTITLE4=John Mayall - Reaching For A Mountain
TTITLE5=Elmore James - Coming Home
TTITLE6=Johnny Guitar Watson - She Moves Me
TTITLE7=Big Joe Williams - Baby Please Don't Go
TTITLE8=Mike Bloomfield - Vamp In C
TTITLE9=Howlin' Wolf - You'll Be Mine
TTITLE10=Sonny Boy Williamson II. - I Wonder Why
TTITLE11=Muddy Waters - Close To You
TTITLE12=John Lee Hooker - She Left Me On Bended Knee
TTITLE13=Elmore James - The Sky Is Crying
TTITLE14=Jeff Beck - Got To Hurry
TTITLE15=Sonny Boy Williamson II. - Decoration Day
EXTD=
EXTT0=
EXTT1=
EXTT2=
EXTT3=
EXTT4=
EXTT5=
EXTT6=
EXTT7=
EXTT8=
EXTT9=
EXTT10=
EXTT11=
EXTT12=
EXTT13=
EXTT14=
EXTT15=
PLAYORDER=
